<svg width="603" height="60" xmlns="http://www.w3.org/2000/svg">
 <g>
  <title>Layer 1</title>
  <g id="svg_1" stroke="null">
   <g id="svg_2" fill-rule="evenodd" clip-rule="evenodd" stroke="null">
    <path id="svg_3" d="m165.18381,36.50608l-48.58728,0c-0.74302,0 -1.47985,-0.49225 -2.22287,-1.47985l0,-9.64687c0,-1.47985 0.73373,-2.22287 2.22287,-2.22287l48.58728,0c0.24148,0.25386 0.6037,0.37461 1.10524,0.37461c0.74302,0.50154 1.11453,1.11453 1.11453,1.85136l0,9.64687l-2.21977,1.47675zm-76.02946,-9.63448l-51.54697,0l0,-3.712l51.54697,0l2.23525,1.48913l-2.23525,2.22287zm155.37774,-0.74612c-0.24458,0.50463 -0.61609,0.74612 -1.10834,0.74612l-51.16927,0l0,-3.712l51.16617,0c0.49225,0 1.10834,0.50463 1.85136,1.48913c-0.25077,0.49225 -0.50154,0.9845 -0.73992,1.47675zm-145.73397,-3.70891c0,-3.70271 -1.86064,-5.56336 -5.56026,-5.56336l-63.78821,0l0,26.33694l8.15773,0l0,-10.3837l55.63048,0c3.70271,0 5.56026,-1.97519 5.56026,-5.93487l0,-4.45502l0,0.00001zm75.64866,0c0,-3.70271 -1.86064,-5.56336 -5.56026,-5.56336l-56.73882,0c-3.712,0 -5.56336,1.86064 -5.56336,5.56336l0,14.46411c0,4.20425 1.85136,6.30947 5.56336,6.30947l56.73882,0c3.69962,0 5.56026,-2.10522 5.56026,-6.30947l0,-14.46411zm78.98606,12.98426c0,-1.48604 -0.74612,-2.96589 -2.22287,-4.45502c1.47675,-0.73373 2.22287,-2.09284 2.22287,-4.07422l0,-4.45502c0,-3.70271 -1.98448,-5.56336 -5.93487,-5.56336l-63.039,0l0,26.33694l7.79861,0l0,-10.3837l50.42315,0c0.24148,0.23839 0.73373,0.67181 1.47985,1.29719c0.74302,0.62228 1.11762,1.17645 1.11762,1.65941l0,7.424l8.15773,0l0,-7.78622l-0.0031,0l0.00001,0zm77.88082,-2.59438c0,-3.95348 -1.98448,-5.93487 -5.93177,-5.93487l-53.41071,0c-0.49225,0 -1.23837,-0.73373 -2.22287,-2.22287l0.92258,-0.92568a1.79873,1.79873 0 0 1 1.30028,-0.56346l59.33939,0l0,-6.30638l-63.41361,0c-3.712,0 -5.56336,1.86064 -5.56336,5.56336l0,4.45502c0,3.96277 1.85136,5.93487 5.56336,5.93487l53.39523,0c1.48294,0 2.22596,0.74302 2.22596,2.22287c-0.24148,0.25077 -0.55726,0.56346 -0.92568,0.92568a1.78325,1.78325 0 0 1 -1.30028,0.55417l-58.95549,0l0,6.68098l63.0452,0c3.94729,0 5.93177,-2.10522 5.93177,-6.30947l0,-4.07422zm77.86843,3.69962l-58.95549,0l-1.11762,-1.47985l0,-9.64687c0,-0.73373 0.36841,-1.47985 1.11762,-2.22287l58.95549,0l0,-6.30638l-62.29289,0c-3.96587,0 -5.93796,1.86064 -5.93796,5.56336l0,14.46411c0,4.20425 1.9721,6.30947 5.93796,6.30947l62.29289,0l0,-6.68098l0,0.00001zm76.39478,-19.65596l-7.41471,0l0,10.01838l-53.41071,0l0,-10.01838l-7.78313,0l0,26.33694l7.78313,0l0,-10.3837l53.41071,0l0,10.3837l7.41471,0l0,-26.33694zm78.61455,19.65596l-61.18145,0l0,-3.69962l61.18145,0l0,-5.93487l-61.18145,0l0,-3.712l61.18145,0l0,-6.30638l-69.33609,0l0,26.33694l69.33609,0l0,-6.68408l0,0.00001zm5.68719,-19.69621c-2.06807,0 -3.67175,1.60678 -3.67175,3.66866s1.60368,3.67175 3.67175,3.67175c2.07426,0 3.67175,-1.60988 3.67175,-3.67175s-1.59749,-3.66866 -3.67175,-3.66866zm0,0.52321c1.77705,0 3.10211,1.39316 3.10211,3.14854c0,1.75848 -1.32505,3.14545 -3.10211,3.14545s-3.09591,-1.38697 -3.09591,-3.14545c0,-1.75848 1.31886,-3.14854 3.09591,-3.14854zm-0.80184,3.38383l0.87614,0l1.19193,1.87922l0.6099,0l-1.26313,-1.87922c0.57584,-0.10217 1.07119,-0.43652 1.07119,-1.18574c0,-0.76159 -0.43033,-1.17335 -1.38387,-1.17335l-1.62535,0l0,4.23831l0.52631,0l0,-1.87922l-0.0031,0l-0.00002,0zm0,-0.44581l0,-1.46746l0.95664,0c0.51392,0 1.00308,0.13932 1.00308,0.73064c0,0.72135 -0.62847,0.73683 -1.26932,0.73683l-0.69039,0l-0.00001,-0.00001z" stroke="null"/>
   </g>
  </g>
 </g>

</svg>